<?xml version="1.0" encoding="UTF-8"?>
<svg xmlns="http://www.w3.org/2000/svg" xmlns:xlink="http://www.w3.org/1999/xlink" viewBox="0 0 48 48" width="48px" height="48px">
<g id="surface184806719">
<path style=" stroke:none;fill-rule:nonzero;fill:rgb(36.862746%,21.176471%,21.176471%);fill-opacity:1;" d="M 24 48 C 10.746094 48 0 37.253906 0 24 C 0 10.746094 10.746094 0 24 0 C 37.253906 0 48 10.746094 48 24 C 48 37.253906 37.253906 48 24 48 Z M 24 48 "/>
<path style=" stroke:none;fill-rule:nonzero;fill:rgb(19.215687%,19.215687%,19.215687%);fill-opacity:1;" d="M 24 9.699219 C 16.542969 9.699219 10.5 15.746094 10.5 23.199219 L 10.5 37.601562 C 11.285156 40.65625 12.300781 43 12.300781 43 L 12.300781 37.601562 L 12.75 37.601562 L 13.199219 41.199219 C 14.746094 44.460938 16.800781 45.699219 16.800781 45.699219 L 16.800781 41.199219 L 30.300781 41.199219 L 30.300781 45.699219 C 30.300781 45.699219 33.898438 43.898438 35.699219 37.601562 L 36.601562 43 C 36.601562 43 37.5 38.5 37.5 31.300781 L 37.5 23.199219 C 37.5 15.746094 31.457031 9.699219 24 9.699219 Z M 24 9.699219 "/>
<path style=" stroke:none;fill-rule:nonzero;fill:rgb(100%,85.882354%,81.568629%);fill-opacity:1;" d="M 15 20.5 L 15 38.933594 C 15 39.378906 15.160156 39.804688 15.457031 40.132812 C 15.460938 40.136719 15.460938 40.140625 15.464844 40.140625 C 15.734375 40.441406 16.097656 40.808594 16.496094 41.199219 L 16.492188 41.199219 C 18.417969 43.082031 21.640625 45.699219 24 45.699219 C 26.359375 45.699219 29.582031 43.082031 31.507812 41.199219 L 31.503906 41.199219 C 31.902344 40.808594 32.265625 40.441406 32.535156 40.140625 C 32.539062 40.140625 32.539062 40.136719 32.542969 40.132812 C 32.839844 39.804688 33 39.378906 33 38.933594 L 33 20.5 Z M 15 20.5 "/>
<path style=" stroke:none;fill-rule:nonzero;fill:rgb(96.078432%,91.37255%,90.980393%);fill-opacity:1;" d="M 33.898438 27.699219 C 33.898438 27.699219 30.300781 27.699219 29.398438 27.699219 C 27.601562 27.699219 26.699219 29.5 26.699219 29.5 L 26.699219 30.398438 L 33.898438 30.398438 Z M 33.898438 27.699219 "/>
<path style=" stroke:none;fill-rule:nonzero;fill:rgb(74.901962%,21.176471%,4.705882%);fill-opacity:1;" d="M 31.199219 29.050781 C 31.199219 29.796875 30.59375 30.398438 29.851562 30.398438 C 29.105469 30.398438 28.5 29.796875 28.5 29.050781 C 28.5 28.304688 29.105469 27.699219 29.851562 27.699219 C 30.59375 27.699219 31.199219 28.304688 31.199219 29.050781 Z M 31.199219 29.050781 "/>
<path style=" stroke:none;fill-rule:nonzero;fill:rgb(12.941177%,12.941177%,12.941177%);fill-opacity:1;" d="M 26.699219 29.5 C 26.699219 29.5 27.488281 28.601562 32.210938 28.601562 L 33.898438 28.601562 L 33.898438 26.800781 C 33.898438 26.800781 31.648438 26.800781 31.199219 26.800781 C 27.601562 26.800781 26.699219 29.5 26.699219 29.5 Z M 26.699219 29.5 "/>
<path style=" stroke:none;fill-rule:nonzero;fill:rgb(17.254902%,17.254902%,17.254902%);fill-opacity:1;" d="M 34.800781 24.101562 L 27.601562 26.800781 L 25.800781 26.800781 L 30.300781 24.101562 Z M 34.800781 24.101562 "/>
<path style=" stroke:none;fill-rule:nonzero;fill:rgb(96.078432%,91.37255%,90.980393%);fill-opacity:1;" d="M 14.101562 27.699219 C 14.101562 27.699219 17.699219 27.699219 18.601562 27.699219 C 20.398438 27.699219 21.300781 29.5 21.300781 29.5 L 21.300781 30.398438 L 14.101562 30.398438 Z M 14.101562 27.699219 "/>
<path style=" stroke:none;fill-rule:nonzero;fill:rgb(74.901962%,21.176471%,4.705882%);fill-opacity:1;" d="M 19.5 29.050781 C 19.5 29.796875 18.894531 30.398438 18.148438 30.398438 C 17.40625 30.398438 16.800781 29.796875 16.800781 29.050781 C 16.800781 28.304688 17.40625 27.699219 18.148438 27.699219 C 18.894531 27.699219 19.5 28.304688 19.5 29.050781 Z M 19.5 29.050781 "/>
<path style=" stroke:none;fill-rule:nonzero;fill:rgb(12.941177%,12.941177%,12.941177%);fill-opacity:1;" d="M 21.300781 29.5 C 21.300781 29.5 20.511719 28.601562 15.789062 28.601562 L 14.101562 28.601562 L 14.101562 26.800781 C 14.101562 26.800781 16.351562 26.800781 16.800781 26.800781 C 20.398438 26.800781 21.300781 29.5 21.300781 29.5 Z M 21.300781 29.5 "/>
<path style=" stroke:none;fill-rule:nonzero;fill:rgb(17.254902%,17.254902%,17.254902%);fill-opacity:1;" d="M 13.199219 24.101562 L 20.398438 26.800781 L 22.199219 26.800781 L 17.699219 24.101562 Z M 13.199219 24.101562 "/>
<path style=" stroke:none;fill-rule:nonzero;fill:rgb(100%,73.725492%,65.490198%);fill-opacity:1;" d="M 25.800781 26.800781 C 25.800781 26.800781 24.898438 27.699219 24.898438 28.601562 C 24.898438 30.398438 31.199219 36.699219 31.199219 36.699219 C 31.199219 36.699219 26.699219 29.5 26.699219 28.601562 C 26.699219 27.699219 27.601562 26.800781 27.601562 26.800781 Z M 25.800781 26.800781 "/>
<path style=" stroke:none;fill-rule:nonzero;fill:rgb(100%,73.725492%,65.490198%);fill-opacity:1;" d="M 22.199219 26.800781 C 22.199219 26.800781 23.101562 27.699219 23.101562 28.601562 C 23.101562 30.398438 16.800781 36.699219 16.800781 36.699219 C 16.800781 36.699219 21.300781 29.5 21.300781 28.601562 C 21.300781 27.699219 20.398438 26.800781 20.398438 26.800781 Z M 22.199219 26.800781 "/>
<path style=" stroke:none;fill-rule:nonzero;fill:rgb(100%,73.725492%,65.490198%);fill-opacity:1;" d="M 21.300781 39.398438 L 26.699219 39.398438 L 26.699219 41.199219 L 21.300781 41.199219 Z M 21.300781 39.398438 "/>
<path style=" stroke:none;fill-rule:nonzero;fill:rgb(100%,73.725492%,65.490198%);fill-opacity:1;" d="M 22.199219 35.800781 L 25.800781 35.800781 C 25.800781 35.800781 24.898438 37.601562 24 37.601562 C 23.101562 37.601562 22.199219 35.800781 22.199219 35.800781 Z M 22.199219 35.800781 "/>
<path style=" stroke:none;fill-rule:nonzero;fill:rgb(100%,73.725492%,65.490198%);fill-opacity:1;" d="M 23.101562 32.199219 L 23.101562 28.601562 L 21.300781 29.5 C 21.300781 29.5 22.199219 29.949219 23.101562 32.199219 Z M 23.101562 32.199219 "/>
<path style=" stroke:none;fill-rule:nonzero;fill:rgb(42.352942%,42.352942%,46.27451%);fill-opacity:1;" d="M 12.300781 14.199219 L 35.699219 14.199219 L 35.699219 25 L 12.300781 25 Z M 12.300781 14.199219 "/>
<path style=" stroke:none;fill-rule:nonzero;fill:rgb(69.803923%,69.803923%,73.725492%);fill-opacity:1;" d="M 12.300781 16 L 35.699219 16 L 35.699219 23.199219 L 12.300781 23.199219 Z M 12.300781 16 "/>
<path style=" stroke:none;fill-rule:nonzero;fill:rgb(42.352942%,42.352942%,46.27451%);fill-opacity:1;" d="M 27.804688 16.917969 C 27.628906 16.742188 27.34375 16.742188 27.167969 16.917969 L 26.445312 17.644531 C 26.019531 17.339844 25.234375 16.898438 24.226562 16.898438 C 22.628906 16.898438 21.378906 18.074219 21.3125 19.59375 L 20.4375 21.675781 C 20.378906 21.8125 20.394531 21.972656 20.476562 22.097656 C 20.558594 22.222656 20.699219 22.300781 20.851562 22.300781 L 23.886719 22.300781 C 24.625 22.300781 25.800781 21.78125 25.800781 20.386719 C 25.800781 19.410156 25.230469 18.699219 24.449219 18.699219 C 23.519531 18.699219 23.160156 19.46875 23.105469 19.875 C 23.070312 20.121094 23.242188 20.347656 23.488281 20.382812 C 23.722656 20.417969 23.960938 20.246094 23.996094 20 C 24 19.960938 24.0625 19.601562 24.449219 19.601562 C 24.746094 19.601562 24.898438 19.996094 24.898438 20.386719 C 24.898438 21.371094 23.898438 21.398438 23.886719 21.398438 C 22.847656 21.398438 22.199219 20.753906 22.199219 19.710938 C 22.199219 18.773438 22.957031 17.800781 24.226562 17.800781 C 25.363281 17.800781 26.152344 18.5625 26.15625 18.570312 C 26.332031 18.742188 26.617188 18.742188 26.792969 18.570312 L 27.804688 17.554688 C 27.980469 17.378906 27.980469 17.09375 27.804688 16.917969 Z M 27.804688 16.917969 "/>
<path style=" stroke:none;fill-rule:nonzero;fill:rgb(42.352942%,42.352942%,46.27451%);fill-opacity:1;" d="M 12.300781 18.699219 L 35.699219 18.699219 L 35.699219 20.5 L 12.300781 20.5 Z M 12.300781 18.699219 "/>
<path style=" stroke:none;fill-rule:nonzero;fill:rgb(19.215687%,19.215687%,19.215687%);fill-opacity:1;" d="M 13.199219 14.199219 L 15 14.199219 L 15 32.199219 L 13.199219 32.199219 Z M 13.199219 14.199219 "/>
<path style=" stroke:none;fill-rule:nonzero;fill:rgb(19.215687%,19.215687%,19.215687%);fill-opacity:1;" d="M 33 14.199219 L 34.800781 14.199219 L 34.800781 32.199219 L 33 32.199219 Z M 33 14.199219 "/>
<path style=" stroke:none;fill-rule:nonzero;fill:rgb(17.254902%,17.254902%,17.254902%);fill-opacity:1;" d="M 16.800781 14.199219 L 18.601562 14.199219 L 18.601562 16 L 16.800781 16 Z M 16.800781 14.199219 "/>
<path style=" stroke:none;fill-rule:nonzero;fill:rgb(17.254902%,17.254902%,17.254902%);fill-opacity:1;" d="M 29.398438 14.199219 L 31.199219 14.199219 L 31.199219 16 L 29.398438 16 Z M 29.398438 14.199219 "/>
<path style=" stroke:none;fill-rule:nonzero;fill:rgb(25.882354%,25.882354%,25.882354%);fill-opacity:1;" d="M 37.050781 9.8125 C 34.195312 6.246094 28.835938 4.300781 27.601562 4.300781 C 25.800781 4.300781 25.128906 5.199219 24 5.199219 C 22.871094 5.199219 22.199219 4.300781 20.398438 4.300781 C 19.164062 4.300781 13.804688 6.246094 10.949219 9.8125 C 9.148438 12.0625 7.800781 17.871094 7.800781 22.300781 C 7.800781 28.730469 8.699219 38.5 8.699219 38.5 L 9.601562 31.300781 C 9.601562 31.300781 9.601562 33.664062 10.5 37.601562 C 10.5 34.898438 11.398438 29.5 11.398438 29.5 C 11.398438 29.5 11.398438 36.699219 13.199219 41.199219 C 13.199219 33.550781 15 18.699219 15 18.699219 C 15.898438 23.199219 16.800781 25 16.800781 25 C 16.800781 25 16.800781 16 17.699219 14.199219 C 17.699219 14.199219 17.699219 27.699219 19.5 31.300781 C 19.5 18.699219 20.398438 11.5 20.398438 11.5 C 20.398438 11.5 22.199219 11.5 24 14.199219 C 25.800781 11.5 27.601562 11.5 27.601562 11.5 C 27.601562 11.5 28.5 25 28.5 34.898438 C 30.300781 31.300781 30.300781 14.199219 30.300781 14.199219 C 31.199219 18.699219 31.199219 25 31.199219 25 C 31.199219 25 32.101562 24.101562 33 18.699219 C 33 18.699219 34.800781 23.199219 34.800781 34.898438 C 36.601562 30.398438 36.601562 27.699219 36.601562 27.699219 C 36.601562 27.699219 36.601562 35.800781 36.601562 43 C 38.398438 38.5 38.398438 31.300781 38.398438 31.300781 L 39.300781 38.5 C 39.300781 38.5 40.199219 31.300781 40.199219 22.300781 C 40.199219 17.871094 38.851562 12.0625 37.050781 9.8125 Z M 37.050781 9.8125 "/>
<path style=" stroke:none;fill-rule:nonzero;fill:rgb(80.000001%,80.000001%,80.000001%);fill-opacity:1;" d="M 26.800781 20.375 L 26.800781 21.164062 L 24.472656 21.164062 L 24.472656 27.625 L 23.519531 27.625 L 23.519531 21.164062 L 21.199219 21.164062 L 21.199219 20.375 Z M 26.800781 20.375 "/>
</g>
</svg>
